<svg width="3698" height="2068" viewBox="0 0 3698 2068" fill="none" xmlns="http://www.w3.org/2000/svg">
<path d="M714.683 2043.07C714.683 2043.07 353.476 2033.49 199.129 1789.41C-80.4897 1347.23 45.5239 959.453 543.335 988.32C770.883 1001.51 893.986 780.467 1025.79 559.413C1216.56 239.48 1425.55 -80.4532 1995.81 309.84C2063.61 356.24 2158.29 356.067 2261.68 355.894C2477.61 355.547 2731.49 355.187 2857.4 779.213C2901.67 928.307 3234.15 938.693 3449.03 1058.27C3786.08 1245.83 3690.89 2046.2 3372.48 2049.35C3054.05 2052.49 714.683 2043.07 714.683 2043.07" fill="#C2E7F2"/>
<path d="M381.764 1087.72C397.873 1091.44 470.656 1092.32 521.765 1080.84C532.42 1078.45 542.153 1075.52 550.208 1071.96C559.835 1067.72 567.093 1062.59 570.796 1056.41C576.576 1046.79 587.141 1013.85 599.567 970.653C633.791 851.653 681.955 655.013 681.955 655.013C681.955 655.013 585.244 674.76 564.783 691.613C544.303 708.453 526.244 975.747 506.991 982.973C504.156 984.027 499.261 986.267 492.995 989.36C492.688 989.507 492.38 989.667 492.073 989.813C488.335 991.653 484.127 993.787 479.576 996.133C439.647 1016.65 373.564 1053.61 366.721 1061.84C357.691 1072.67 358.287 1082.29 381.764 1087.72" fill="#739AF0"/>
<path d="M567.331 807.187C567.331 802.64 567.78 798.08 568.611 793.52C581.056 725.094 680.004 655.013 681.955 655.013L681.972 656.44C681.972 666.893 698.461 686.213 723.855 687.867C753.977 689.84 791.159 672.654 791.159 655.294C791.34 655.294 808.085 657.56 813.756 658.2C837.903 660.947 886.085 673.974 906.729 689.587C926.36 704.414 898.62 797.907 881.444 864.12C874.167 892.12 868.804 915.24 869.688 925.48C870.123 930.48 874.619 998.44 878.628 1059.92C881.951 1110.63 884.948 1156.92 885.039 1159.83C885.255 1165.59 856.612 1185.76 808.52 1201C796.907 1204.69 784.139 1208.08 770.376 1210.91C745.689 1215.97 717.769 1219.24 687.391 1219.13C677.46 1219.09 668.049 1218.6 659.164 1217.71C590.464 1210.97 566.932 1132.68 567.331 807.187" fill="#739AF0"/>
<path d="M791.135 654.493C791.715 627.92 791.277 596.173 787.685 569.373L681.603 586.707C681.603 586.707 681.489 619.093 681.955 655.013C681.892 655.027 679.071 688.333 720.113 693.213C761.155 698.093 792.241 680.213 791.135 654.493Z" fill="#D9935C"/>
<path d="M702.387 2059.15C715.724 2050.93 707.888 1990.09 707.888 1990.09C707.888 1990.09 645.413 1940.49 636.992 1978.68C628.571 2016.87 578.027 2034.19 549.235 2038.97C529.361 2042.27 522.025 2052.55 520.143 2059.07L702.387 2059.15Z" fill="#233862"/>
<path d="M799.561 1013.07C799.561 1114.8 848.864 1087.39 878.628 1059.92C874.619 998.44 871.801 780.693 871.801 780.693C871.801 780.693 799.561 867.387 799.561 1013.07Z" fill="#4A75CB"/>
<path d="M479.576 996.133C481.545 1010.4 504.084 1051.93 521.765 1080.84C532.42 1078.45 542.153 1075.52 550.208 1071.96C559.835 1067.72 567.093 1062.59 570.796 1056.41C576.576 1046.79 587.141 1013.85 599.567 970.653C590.373 917.48 581.633 864.987 581.633 864.987L578.923 829.76C578.923 832.48 537.693 987.2 519.02 990.8C507.767 992.987 499.785 990.333 492.995 989.36C492.688 989.507 492.38 989.667 492.073 989.813C488.335 991.653 484.127 993.787 479.576 996.133" fill="#4A75CB"/>
<path d="M893.821 2059.15C907.159 2050.93 899.323 1990.09 899.323 1990.09C899.323 1990.09 836.848 1940.49 828.427 1978.68C820.005 2016.87 769.461 2034.19 740.669 2038.97C720.796 2042.27 713.573 2052.55 711.691 2059.07L893.821 2059.15Z" fill="#233862"/>
<path d="M801.237 538.773C801.237 538.773 872.056 427.12 736.073 419.733C736.073 419.733 685.071 425.733 673.524 414.187C673.524 414.187 633.963 474.32 670.909 538.773C707.855 603.24 801.237 538.773 801.237 538.773Z" fill="#233862"/>
<path d="M684.751 597.04C695.06 605.16 725.283 613.213 734.02 614.147C734.02 614.147 778.837 604.16 786.984 599.24C799.603 591.6 798.789 576.107 799.436 554.587C800.212 529.12 802.779 509.107 799.933 494.427C796.555 476.853 785.416 466.853 754.231 464.147C696.981 459.173 673.132 473.507 672.135 492.707C671.876 497.853 671.635 502.773 671.469 507.427C669.179 567.28 673.908 588.507 684.751 597.04" fill="#D9935C"/>
<path d="M670.951 527.053C671.504 561.72 680.856 582.253 687.635 584.84C695.433 587.827 704.615 590.293 714.188 591.933C717.412 592.32 720.501 592.213 720.465 590.373C720.36 584.907 713.053 578.173 718.483 573.32C724.18 568.24 754.753 566.533 757.217 577.613C758.419 583.027 748.559 592.56 755.315 592.787C757.365 592.44 759.377 592.04 761.297 591.533C772.432 588.64 781.169 583.373 784.851 581.147C797.468 573.493 796.64 561.773 799.435 540.427C801.243 526.613 801.243 534.093 799.435 554.587C797.544 576.04 801.243 589.813 786.983 599.24C779.049 604.493 733.356 625.027 733.356 625.027C734.021 614.147 695.057 605.16 684.751 597.04C675.18 589.52 670.377 572.12 670.951 527.053" fill="#233862"/>
<path d="M885.032 1159.83C885.249 1165.59 856.605 1185.76 808.512 1201C804.64 1202.24 800.625 1203.43 796.503 1204.57L796.404 1204.69C791.917 1257.33 779.772 1331.69 768.816 1403.45V1403.47C765.98 1422.07 763.236 1440.49 760.707 1458.32C754.025 1505.49 749.024 1548.47 748.481 1579.41V1579.73C748.245 1593.93 760.22 1629.35 761.123 1637.53C761.681 1642.53 762.135 1647.83 762.459 1653.36C763.76 1675.52 763.236 1701.71 761.447 1729.67C753.592 1851.68 721.355 2007.79 709.852 2014.44C686.988 2027.65 645.377 2014.41 624.229 2011.33C615.471 2010.03 608.464 2002.57 608.915 1993.73C619.244 1791.25 589.572 1509.25 567.395 1335.89C566.816 1331.37 566.239 1326.95 565.679 1322.6C563.025 1302.16 561.272 1283.07 560.171 1265.85C559.159 1250.76 558.671 1237.05 558.455 1225.17C558.401 1221.47 558.364 1217.92 558.347 1214.59C558.293 1203.73 566.924 1132.68 567.321 807.187C567.331 799.667 573.488 793.52 581.007 793.52H780.056C799.292 793.52 814.768 809.253 814.527 828.493C814.217 853.32 815.113 887.987 820.503 921.067C827.849 966.267 843.584 1008.49 876.053 1018.65L876.132 1018.72C876.279 1019.04 877.167 1021.03 878.592 1024.32L878.604 1024.36C878.911 1032.53 879.253 1040.85 879.632 1049.33C879.704 1051.03 879.777 1052.75 879.867 1054.47C879.903 1055.48 879.957 1056.47 880.011 1057.48C880.084 1059.2 880.175 1060.93 880.265 1062.67C880.391 1065.52 880.535 1068.39 880.697 1071.29C880.824 1073.57 880.949 1075.85 881.076 1078.15C881.312 1082.55 881.584 1087.01 881.871 1091.51C881.944 1092.95 882.035 1094.37 882.143 1095.84C882.521 1101.65 882.919 1107.56 883.371 1113.51C883.497 1115.32 883.64 1117.15 883.785 1118.99C883.839 1119.88 883.912 1120.76 883.985 1121.64C884.164 1123.97 884.345 1126.31 884.544 1128.65C884.743 1131.13 884.96 1133.61 885.176 1136.13C885.971 1145.27 884.796 1153.41 885.032 1159.83" fill="#2B478B"/>
<path d="M761.447 1729.67C753.592 1851.68 721.355 2007.79 709.852 2014.44C686.988 2027.65 645.377 2014.41 624.229 2011.33C615.471 2010.03 608.464 2002.57 608.915 1993.73C619.244 1791.25 589.572 1509.25 567.395 1335.89C566.816 1331.37 566.239 1326.95 565.679 1322.6C563.025 1302.16 561.272 1283.07 560.171 1265.85C570.717 1197.12 630.243 1193.44 684.224 1335.61C677.541 1382.79 763.236 1701.71 761.447 1729.67" fill="#233862"/>
<path d="M887.264 1573.67C888.9 1587.77 905.408 1621.32 907.389 1629.31C934.679 1739.05 919.603 1999.28 906.073 2009.68C885.14 2025.79 842.147 2018.13 820.783 2017.85C811.928 2017.72 804.007 2011.24 803.295 2002.43C786.513 1795.09 716.981 1510.31 672.265 1342.79C649.751 1258.4 646.56 1196.35 646.56 1196.35C646.56 1196.35 855.548 1068.31 878.148 1138.25C898.149 1200.16 874.659 1465.37 887.264 1573.67" fill="#2B478B"/>
<path d="M674.409 388.507C675.852 386.893 677.38 385.32 678.995 383.8C685.811 377.32 694.021 371.733 703.893 367.613C740.329 352.413 770.552 366.44 789.436 380.813C791.297 382.213 793.048 383.627 794.675 385.04C804.943 393.76 810.675 401.547 810.675 401.547C810.675 401.547 828.373 425.693 827.781 476.573L645.493 478.52C645.493 478.52 642.817 423.56 674.409 388.507" fill="#FFA412"/>
<path d="M776.629 477.107L766.613 477.213C766.405 474.32 766.899 408.16 791.575 382.467C793.436 383.88 793.048 383.627 794.675 385.04C771.243 407.653 776.58 476.427 776.629 477.107" fill="#E27F2B"/>
<path d="M697.415 477.973C695.333 437.467 679.82 394.907 675.633 387.333C677.075 385.667 677.38 385.36 678.995 383.8C681.897 388.8 705.673 432.867 708.187 477.854L827.781 476.573C827.781 476.573 767.18 490.173 730.613 490.627C694.045 491.08 645.493 478.52 645.493 478.52L697.415 477.973Z" fill="#E27F2B"/>
<path d="M820.915 659.16C820.915 659.16 759.323 730.92 755.711 793.52L787.089 795.187C787.089 795.187 794.992 725.453 841.345 663.453C841.345 663.453 834.093 661.693 831.683 661.213C828.453 660.573 820.915 659.16 820.915 659.16" fill="#2B478B"/>
<path d="M667.355 658.173C623.235 724.947 618.503 794.88 618.503 794.88L586.831 794.333C589.433 745.12 620.351 690.987 637.419 665.347C637.419 665.347 659.335 659.8 667.355 658.173Z" fill="#2B478B"/>
<path d="M736.132 1346.76H761.565C773.387 1341.39 837.071 1313.8 898.284 1313.47C942.451 1313.23 992.777 1346.23 995.807 1346.57C1003.48 1347.48 970.221 1347.79 970.221 1347.79C970.221 1347.79 920.376 1325.73 897.981 1325.21C876.633 1324.71 829.243 1340.23 810.311 1346.76H952.852C964.771 1346.76 974.523 1356.51 974.523 1368.43V1530.97C974.523 1542.89 964.771 1552.64 952.852 1552.64H736.132C724.212 1552.64 714.46 1542.89 714.46 1530.97V1368.43C714.46 1356.51 724.212 1346.76 736.132 1346.76" fill="#FFA412"/>
<path d="M806.565 1346.76H1023.28C1035.2 1346.76 1044.96 1356.51 1044.96 1368.43V1530.97C1044.96 1542.89 1035.2 1552.64 1023.28 1552.64H806.565C794.645 1552.64 784.893 1542.89 784.893 1530.97V1368.43C784.893 1356.51 794.645 1346.76 806.565 1346.76" fill="#E27F2B"/>
<path d="M870.212 1044.33C868.659 1117.8 877.815 1264.11 877.815 1264.11H921.159C941.621 1161.16 948.845 1094.93 948.845 1058.81C948.845 1051.71 948.808 1045.08 948.753 1038.95C948.483 1008.11 947.653 990.187 947.653 990.187C955.78 803.293 918.449 703.347 906.729 689.587C894.991 675.827 841.352 663.453 841.352 663.453C841.352 663.453 823.635 715.08 816.411 756.627C809.188 798.16 873.228 972.693 870.591 1032.35C870.428 1036.07 870.304 1040.07 870.212 1044.33" fill="#739AF0"/>
<path d="M307.652 1094.35H342.705C346.173 1094.35 349.028 1097.21 349.028 1100.69V2055.21C349.028 2058.69 346.173 2061.55 342.705 2061.55H307.652C304.167 2061.55 301.332 2058.69 301.332 2055.21V1100.69C301.332 1097.21 304.167 1094.35 307.652 1094.35Z" fill="#F1A34F"/>
<path d="M307.652 1094.35H342.705C346.173 1094.35 349.028 1097.21 349.028 1100.69V1130.27H301.332V1100.69C301.332 1097.21 304.167 1094.35 307.652 1094.35Z" fill="#2B478B"/>
<path d="M349.028 2055.21C349.028 2058.69 346.173 2061.55 342.705 2061.55H307.652C304.167 2061.55 301.332 2058.69 301.332 2055.21V2029.69H349.028V2055.21Z" fill="#2B478B"/>
<path d="M324.881 1156.89C326.867 1156.89 328.493 1158.52 328.493 1160.51V2000.68C328.493 2002.67 326.867 2004.29 324.881 2004.29C322.895 2004.29 321.269 2002.67 321.269 2000.68V1160.51C321.269 1158.52 322.895 1156.89 324.881 1156.89" fill="#E27F2B"/>
<path d="M877.815 1264.11C877.815 1264.11 868.659 1117.8 870.212 1044.33C904.869 1033.16 932.825 1035.61 948.753 1038.95C948.808 1045.08 948.845 1051.71 948.845 1058.81C948.845 1094.93 941.621 1161.16 921.159 1264.11C930.188 1302.03 929.587 1342.97 913.936 1350.19C898.284 1357.41 846.512 1330.32 847.113 1318.28C847.716 1306.24 877.815 1264.11 877.815 1264.11" fill="#D9935C"/>
<path d="M284.771 1094.95C288.995 1079.45 292.135 1070.87 302.799 1063.33C318.297 1052.4 336.697 1055.36 350.409 1057.77C360.893 1059.61 371.871 1056.09 376.472 1054.33C400.756 1038.15 461.719 1004.77 492.073 989.813C512.788 1001.83 538.235 1025.59 550.208 1071.96C503.488 1092.57 401.233 1092.21 381.764 1087.72C381.764 1087.72 363.741 1100.81 350.028 1102.01C344.835 1102.48 338.291 1100.96 332.169 1098.91C322.536 1095.69 312.195 1098.89 305.268 1107.47C298.604 1115.71 289.904 1120.23 286.295 1120.23C280.709 1120.23 282.112 1104.69 284.771 1094.95" fill="#D9935C"/>
<path d="M1456.59 914.08C1438.72 968.787 1341.32 1063.35 1327.85 1072.77C1327.85 1072.77 1305.2 1035 1309.72 1013.85C1313.43 996.587 1351.35 935.04 1364.32 904.8C1365 903.227 1365.61 901.733 1366.13 900.333C1367.92 895.693 1368.85 892.107 1368.64 889.973C1368 883.4 1347.35 867.413 1323.33 848.453C1292.15 823.8 1255.28 794.147 1249.29 773.64C1238.72 737.387 1202.08 593.827 1202.08 593.827C1202.08 593.827 1293.11 613.507 1318.79 636.173C1344.48 658.827 1454.76 847.68 1459.29 896.013C1459.79 901.293 1458.79 907.387 1456.59 914.08Z" fill="#FFA412"/>
<path d="M1456.59 914.08C1438.72 968.787 1341.32 1063.35 1327.85 1072.77C1327.85 1072.77 1305.2 1035 1309.72 1013.85C1313.63 995.693 1355.39 928.533 1366.13 900.333C1382.32 897.533 1420.31 894.08 1456.59 914.08" fill="#D9935C"/>
<path d="M1202.12 581.213L1202.05 592.36C1202.05 592.36 1205.09 627.227 1162.16 632.32C1119.22 637.427 1086.89 621.84 1088.06 594.947C1091.92 574.107 1095.97 556.68 1096.26 539.44C1096.36 533.027 1095.93 526.227 1094.73 518.56L1177.93 516.893L1202.44 520.893L1202.12 581.213" fill="#D9935C"/>
<path d="M1202.44 520.893L1202.12 581.213C1193.28 585.32 1183.31 587.827 1172.13 587.827C1133.89 587.827 1109.17 559.787 1096.26 539.44C1096.36 533.027 1095.93 526.227 1094.73 518.56L1177.93 516.893L1202.44 520.893" fill="#CB7D45"/>
<path d="M1128.78 2059.67C1128.78 2059.67 1124.75 2028.21 1115.39 2009.51C1106.04 1990.8 1046.53 2002.71 1046.53 2002.71C1046.53 2002.71 1034.63 2012.91 1032.08 2060.52L1128.78 2059.67Z" fill="#233862"/>
<path d="M1331.55 2059.56C1317.56 2051.03 1325.52 1987.36 1325.52 1987.36C1325.52 1987.36 1390.68 1935.23 1399.64 1975.13C1408.6 2015.05 1461.53 2032.97 1491.68 2037.85C1512.48 2041.23 1518.92 2052.75 1520.92 2059.56H1331.55" fill="#233862"/>
<path d="M1196.57 1589.37C1199.23 1603.99 1200.91 1615.97 1201.36 1624.56C1207.41 1742.72 1300.81 2012.87 1317.52 2019.17C1343.37 2028.92 1384.08 2008.19 1405.37 2001.4C1414.2 1998.59 1420.16 1989.68 1418.19 1980.65C1371.93 1768.01 1354.93 1461.83 1348.76 1280.55C1345.63 1189.24 1329.96 1126.17 1329.96 1126.17C1329.96 1126.17 1102.16 1065.39 1100.81 1142.28C1099.61 1210.31 1176.26 1477.13 1196.57 1589.37" fill="#2B478B"/>
<path d="M1196.57 1589.37L1348.76 1280.55C1345.63 1189.24 1329.96 1126.17 1329.96 1126.17C1329.96 1126.17 1102.16 1065.39 1100.81 1142.28C1099.61 1210.31 1176.26 1477.13 1196.57 1589.37Z" fill="#233862"/>
<path d="M1247.27 1142.55L1126.84 2015.35C1126.84 2015.35 1073.95 2028.09 1032.82 2017.89C1032.82 2017.89 997.564 1553.69 1000.5 1441.48C1003.44 1329.25 975.199 1141.19 1006.95 1120.44C1038.7 1099.71 1247.27 1142.55 1247.27 1142.55Z" fill="#2B478B"/>
<path d="M1336.51 1144.16C1336.51 1144.16 1274.97 1180.04 1185.84 1179.03C1151.1 1178.63 1120.87 1176.04 1095.22 1172.21C1023.73 1161.61 987.651 1141.65 987.939 1134.21C988.18 1127.51 988.648 1105.23 989.495 1095.65C1000.85 964.64 994.977 862.733 1010.27 786.187C1010.45 785.267 1010.63 784.347 1010.83 783.44C1031.05 686.12 1062.77 630.2 1078.51 607.267C1084.26 598.893 1087.87 594.947 1088.06 594.947C1088.06 613.093 1126.73 628.787 1158.26 626.72C1184.81 624.987 1202.05 604.787 1202.05 593.853L1202.08 593.827C1204.27 593.827 1321.89 675.587 1322 751.56C1322.4 1092.05 1343.04 1144.28 1336.51 1144.16" fill="#FFA412"/>
<path d="M1095.38 1171.09C1095.32 1171.47 1095.28 1171.85 1095.22 1172.21C1023.73 1161.61 987.651 1141.65 987.939 1134.21C988.18 1127.51 988.648 1105.23 989.495 1095.65C1000.85 964.64 994.977 862.733 1010.27 786.187C1047.79 836.347 1124.93 967.707 1095.38 1171.09" fill="#E27F2B"/>
<path d="M1291.2 1008.24L1281.6 1040.21L1272.05 1071.93L857.351 947.187C856.76 947.227 856.187 947.16 855.643 947C855.069 946.827 854.54 946.56 854.041 946.213C848.815 942.507 847.861 928.96 851.881 913.68C852.092 912.84 852.333 911.987 852.591 911.133C857.441 894.707 866.264 882.56 873.032 882.454C873.591 882.44 874.119 882.52 874.648 882.667C875.192 882.84 875.691 883.08 876.173 883.413L1291.2 1008.24" fill="#E9F3FE"/>
<path d="M1281.6 1040.21L1272.05 1071.93L857.351 947.187C856.76 947.227 856.187 947.16 855.643 947C855.069 946.827 854.54 946.56 854.041 946.213C848.815 942.507 847.861 928.96 851.881 913.68C868.832 926.4 949.792 982.68 1087.98 1010.05C1230.83 1038.35 1275.03 1040.12 1281.6 1040.21" fill="#BED4F4"/>
<path d="M1292 1008.05C1285.07 1006.01 1275.19 1018.75 1269.95 1036.52C1264.69 1054.28 1266.07 1070.35 1273 1072.4C1279.93 1074.44 1289.81 1061.71 1295.05 1043.93C1300.31 1026.17 1298.93 1010.11 1292 1008.05Z" fill="#AFCDFB"/>
<path d="M879.179 871.693L830.291 863.76C829.763 863.507 829.249 863.32 828.675 863.227C828.131 863.16 827.603 863.147 827.057 863.227C820.351 864.227 813.205 877.413 810.545 894.333C810.395 895.227 810.275 896.093 810.168 896.973C809.216 904.467 809.352 911.4 810.349 916.947C811.437 922.88 813.537 927.2 816.408 928.813L816.573 928.92C817.117 929.213 817.677 929.4 818.265 929.493C818.825 929.587 819.399 929.573 819.988 929.467L1247.45 998.827L1252.76 966.133L1258.09 933.187L879.179 871.693" fill="#E9F3FE"/>
<path d="M1056.86 961.587C965.428 955.707 916.963 907.36 879.179 871.693L830.291 863.76C829.763 863.507 829.249 863.32 828.675 863.227C828.131 863.16 827.603 863.147 827.057 863.227C820.351 864.227 813.205 877.413 810.545 894.333C810.395 895.227 810.275 896.093 810.168 896.973C809.216 904.467 809.352 911.4 810.349 916.947C812.645 923.44 815.003 927.853 816.408 928.813L816.573 928.92C817.117 929.213 817.677 929.4 818.265 929.493C818.825 929.587 819.399 929.573 819.988 929.467L1247.45 998.827L1252.76 966.133C1246.23 966.907 1202.17 970.933 1056.86 961.587" fill="#BED4F4"/>
<path d="M1258.87 932.893C1251.72 931.76 1243.6 945.694 1240.72 963.987C1237.84 982.294 1241.31 998.04 1248.45 999.16C1255.59 1000.28 1263.72 986.36 1266.59 968.054C1269.47 949.76 1266 934.013 1258.87 932.893Z" fill="#AFCDFB"/>
<path d="M1106.79 1058.68C1007.64 1042.91 942.101 1001.36 915.195 981.267C906.009 974.413 901.327 970.04 901.327 970.04C850.52 863.227 942.435 675.96 959.233 644.227C977.363 609.987 1088.06 594.947 1088.06 594.947C1088.06 594.947 1070.38 646.947 1063.47 714.733C1056.57 782.52 982.907 914.64 985.928 925.733C986.684 928.533 995.583 934.387 1008.56 941.787C1047.04 963.693 1121.4 999.013 1125.91 1007.32C1131.96 1018.39 1106.79 1058.68 1106.79 1058.68" fill="#D9935C"/>
<path d="M1125.92 1007.31C1125.92 1007.31 1181.31 985.147 1194.91 994.213C1208.51 1003.28 1231.17 1016.88 1231.17 1025.95C1231.17 1035 1202.47 1059.17 1178.29 1066.73C1154.12 1074.28 1106.78 1058.67 1106.78 1058.67L1125.92 1007.31" fill="#D9935C"/>
<path d="M1063.47 714.733C1056.57 782.52 982.907 914.64 985.928 925.733C986.684 928.533 995.583 934.387 1008.56 941.787C1007.74 941.853 1006.91 941.867 1006.07 941.84C948.113 939.28 921.888 971.347 915.195 981.267C906.009 974.413 901.327 970.04 901.327 970.04C850.52 863.227 942.435 675.96 959.233 644.227C977.363 609.987 1088.06 594.947 1088.06 594.947C1088.06 594.947 1070.38 646.947 1063.47 714.733" fill="#FFA412"/>
<path d="M1207.29 550.2C1207.29 550.2 1100.74 571.734 1088.35 505.16C1075.97 438.6 1053.88 396.56 1121.39 380C1188.89 363.44 1206.88 386.374 1216.41 407.587C1225.95 428.8 1234.69 542.893 1207.29 550.2" fill="#D9935C"/>
<path d="M1090.48 524.36C1090.48 524.36 1069.88 480.4 1052.7 460.88C1035.52 441.347 1044.89 343.747 1119.08 346.867C1193.27 349.987 1219.81 403.08 1220.59 413.24C1221.37 423.387 1161.25 415.587 1144.85 428.853C1128.45 442.133 1144.07 464 1125.32 471.8C1106.58 479.613 1091.75 479.613 1094.87 496.787C1097.99 513.973 1090.48 524.36 1090.48 524.36" fill="#233862"/>
<path d="M1113.37 301.533C1092.15 306.867 1076.23 315.387 1064.34 325.654C1063.16 326.667 1062.01 327.707 1060.91 328.76L1060.89 328.773C1016.9 370.733 1034.45 437.507 1034.45 437.507C1034.45 437.507 1040.31 454.374 1044.34 460.92C1048.37 467.467 1106.78 459.92 1109.81 447.32C1112.83 434.734 1124.41 421.64 1124.41 421.64C1124.41 421.64 1185.99 417.413 1190.12 417.107C1204.04 416.107 1243.73 402.294 1243.73 402.294C1243.28 398.387 1220.95 274.52 1113.37 301.533" fill="#FFA412"/>
<path d="M1280.21 389.213C1272.83 387.4 1260.23 385.387 1239.48 384.627C1239.48 384.627 1222.05 399.067 1187.4 410.067C1171.12 389.547 1124.73 340.107 1064.34 325.653C1064.15 325.6 1063.99 325.56 1063.81 325.52C1062.52 327.133 1061.8 327.68 1060.91 328.76L1060.89 328.773C1060.62 329.093 1060.33 329.467 1060.02 329.947C1109.18 338.507 1155.92 393.733 1171.96 414.4C1158.19 417.787 1142.36 420.467 1124.41 421.64C1124.41 421.64 1232.03 423.653 1281.21 397.747C1284.96 395.773 1284.33 390.213 1280.21 389.213" fill="#E27F2B"/>
<path d="M1389.8 877.893C1387.8 889.187 1381.72 901.08 1364.32 904.8C1365 903.227 1365.61 901.733 1366.13 900.333C1367.92 895.693 1368.85 892.107 1368.64 889.973C1368 883.4 1347.35 867.413 1323.33 848.453C1321.36 837.707 1316.52 805.787 1323.32 780.44C1331.63 749.48 1392.07 865.04 1389.8 877.893" fill="#E27F2B"/>
<path d="M997.003 934.16C997.003 934.16 922.976 928.12 898.804 971.173C898.804 971.173 900.868 985.693 915.195 981.267C915.195 981.267 977.816 938.467 1008.56 941.787C1008.56 941.787 1003.8 934.293 997.003 934.16Z" fill="#E27F2B"/>
<path d="M1364.32 904.8C1364.32 904.8 1402.73 906.4 1451.08 927.453C1451.08 927.453 1461.81 916.92 1457.53 910.867C1453.25 904.827 1385.19 883.107 1364.32 904.8Z" fill="#E27F2B"/>
<path d="M2757.81 1179.08L2827.45 2007.24C2827.45 2007.24 2834.76 2057.44 2797.41 2057.53C2736.01 2057.68 2491.83 2057.53 2491.83 2057.53C2491.83 2057.53 2538.03 2047.08 2537.47 2023.57C2536.81 1995.85 2456.07 1171.24 2456.07 1171.24L2757.81 1179.08" fill="#D86713"/>
<path d="M2777.11 2042.51C2717.32 2043.27 2484.08 2042.55 2472 2042.51C2476.55 2042.51 2511.63 2041.64 2516.59 2015.24C2516.97 2013.17 2517.19 2010.95 2517.17 2008.55C2517.15 2003.39 2514.31 1970.61 2509.71 1920.68C2505.59 1875.91 2500.04 1817.33 2493.83 1752.51C2469.77 1501.31 2435.76 1156.21 2435.76 1156.21L2737.51 1164.05L2787 1752.51L2796.67 1867.37L2805.35 1970.69L2807.16 1992.23C2807.16 1992.23 2815.68 2042.01 2777.11 2042.51" fill="#EE9849"/>
<path d="M3490.61 728.414L3320.96 1409.89L3297.73 1503.23L3218.71 1820.64H1750.68L2041.93 728.414H3490.61Z" fill="#F1A34F"/>
<path d="M3490.61 728.413L3514.13 736.253L3249.97 1844.35L3218.71 1820.64L3490.61 728.413Z" fill="#EE9849"/>
<path d="M3249.97 1844.35H1790.97L1750.68 1820.64H3218.71L3249.97 1844.35Z" fill="#D86713"/>
<path d="M2421.72 2057.85H2737.61V2042.84H2421.72V2057.85Z" fill="#F1A34F"/>
<path d="M2798.64 1843.87L2796.67 1867.37L2796.59 1868.23C2796.59 1868.23 2591.39 1887.91 2509.71 1920.68C2507.64 1898.23 2505.21 1872.31 2502.53 1843.87H2798.64" fill="#D86713"/>
<path d="M2703.61 2042.84H2633.51C2556.52 2042.77 2478.84 2042.52 2472 2042.51C2476.55 2042.51 2511.63 2041.64 2516.59 2015.24C2521.6 2015.51 2531.41 2015.89 2544.99 2015.89C2596.33 2015.89 2701.59 2010.29 2805.35 1970.69L2807.16 1992.23C2807.16 1992.23 2807.96 1996.91 2807.96 2003.41C2807.96 2018.12 2803.85 2042.17 2777.11 2042.51C2761.79 2042.71 2735.08 2042.8 2703.61 2042.84" fill="#E58433"/>
<path d="M2670.99 2042.85C2658.72 2042.85 2646.12 2042.85 2633.51 2042.84H2703.61C2693.17 2042.85 2682.23 2042.85 2670.99 2042.85Z" fill="#E78B37"/>
<path d="M3216.8 1820.64H2722.56C2931.53 1754.25 3030.45 1657.12 3070.32 1606.23H3270.19L3216.8 1820.64" fill="#E78B37"/>
<path d="M3479.55 742.854L3270.19 1606.23H1825.39L2060 742.854H3479.55Z" fill="#D2E4FF"/>
<path d="M1807.52 1606.23H1825.39L1821.8 1619.39L1804.52 1617.43L1807.52 1606.23Z" fill="#F1A34F"/>
<path d="M2401.69 312.333H2406.21V231.747H2401.69V312.333Z" fill="#739AF0"/>
<path d="M2652.51 312.333H2657.04V231.747H2652.51V312.333Z" fill="#739AF0"/>
<path d="M2433.39 312.333H2437.91V231.747H2433.39V312.333Z" fill="#739AF0"/>
<path d="M2675.15 231.747V312.333H2679.68V231.747H2675.15Z" fill="#739AF0"/>
<path d="M2230.59 152.494C2224.17 152.494 2218.83 157.2 2217.79 163.32H1608.92L2121.51 8.90698L2333.11 152.494H2230.59ZM1599.57 308.707L1603.25 210.987H1690.44L1599.57 308.707ZM2348.87 155.107L2348.89 155.12L2348.73 155.013C2348.49 154.84 2348.24 154.667 2347.99 154.494L2122.76 0.613491L1595.77 159.32L1591.99 317.867H1579.91C1572.76 317.867 1566.91 323.72 1566.91 330.867V343.867C1566.91 351.014 1572.76 356.867 1579.91 356.867H1621.8C1628.95 356.867 1634.8 351.014 1634.8 343.867V330.867C1634.8 323.72 1628.95 317.867 1621.8 317.867H1601.41L1700.79 210.987H2057.27V1606.23H2143.93V210.987H2217.59V241.32C2217.59 248.467 2223.44 254.32 2230.59 254.32H2341.08C2348.23 254.32 2354.08 248.467 2354.08 241.32V165.494C2354.08 161.254 2352.03 157.494 2348.87 155.107" fill="#739AF0"/>
<path d="M3367.39 601.267H3421.36L3422.93 661L3367.39 601.267ZM3045.04 572.12C3044.4 568.387 3041.13 565.507 3037.21 565.507H2973.81L3103.89 477.747L3417.21 572.12H3045.04ZM3434.95 666.587H3427.56L3425.92 569.907L3103.12 472.667L2965.12 566.96L2969.67 565.507C2965.29 565.507 2961.72 569.08 2961.72 573.453V619.8C2961.72 624.173 2965.29 627.747 2969.67 627.747H3037.21C3041.59 627.747 3045.16 624.173 3045.16 619.8V601.267H3090.19V1454.12H3143.16V601.267H3361.05L3421.8 666.587H3409.35C3404.97 666.587 3401.4 670.173 3401.4 674.547V682.48C3401.4 686.853 3404.97 690.427 3409.35 690.427H3434.95C3439.32 690.427 3442.89 686.853 3442.89 682.48V674.547C3442.89 670.173 3439.32 666.587 3434.95 666.587" fill="#739AF0"/>
<path d="M2973.75 709.587H2947.79V691.413H2973.75V709.587ZM2973.75 733.413H2947.79V715.24H2973.75V733.413ZM2973.75 757.254H2947.79V739.08H2973.75V757.254ZM2973.75 781.093H2947.79V762.907H2973.75V781.093ZM2973.75 804.92H2947.79V786.747H2973.75V804.92ZM2973.75 825.293H2947.79V810.573H2973.75V825.293ZM2973.75 849.12H2947.79V830.947H2973.75V849.12ZM2973.75 872.96H2947.79V854.773H2973.75V872.96ZM2973.75 896.787H2947.79V878.613H2973.75V896.787ZM2973.75 920.627H2947.79V902.44H2973.75V920.627ZM2973.75 944.454H2947.79V926.28H2973.75V944.454ZM2973.75 967.467H2947.79V950.12H2973.75V967.467ZM2973.75 991.293H2947.79V973.12H2973.75V991.293ZM2973.75 1015.13H2947.79V996.947H2973.75V1015.13ZM2973.75 1038.96H2947.79V1020.79H2973.75V1038.96ZM2973.75 1062.8H2947.79V1044.63H2973.75V1062.8ZM2973.75 1086.63H2947.79V1068.45H2973.75V1086.63ZM2973.75 1107H2947.79V1092.29H2973.75V1107ZM2973.75 1130.83H2947.79V1112.65H2973.75V1130.83ZM2973.75 1154.67H2947.79V1136.49H2973.75V1154.67ZM2973.75 1178.51H2947.79V1160.32H2973.75V1178.51ZM2973.75 1202.33H2947.79V1184.16H2973.75V1202.33ZM2973.75 1226.17H2947.79V1207.99H2973.75V1226.17ZM2973.75 1248.04H2947.79V1231.83H2973.75V1248.04ZM2973.75 1271.88H2947.79V1253.69H2973.75V1271.88ZM2973.75 1295.71H2947.79V1277.53H2973.75V1295.71ZM2973.75 1319.55H2947.79V1301.36H2973.75V1319.55ZM2973.75 1343.37H2947.79V1325.2H2973.75V1343.37ZM2973.75 1367.21H2947.79V1349.04H2973.75V1367.21ZM2973.75 1387.57H2947.79V1372.87H2973.75V1387.57ZM2973.75 1411.41H2947.79V1393.23H2973.75V1411.41ZM2973.75 1435.24H2947.79V1417.07H2973.75V1435.24ZM2873.12 1417.07H2899.07V1435.24H2873.12V1417.07ZM2873.12 1393.23H2899.07V1411.41H2873.12V1393.23ZM2873.12 1372.87H2899.07V1387.57H2873.12V1372.87ZM2873.12 1349.04H2899.07V1367.21H2873.12V1349.04ZM2873.12 1325.2H2899.07V1343.37H2873.12V1325.2ZM2873.12 1301.36H2899.07V1319.55H2873.12V1301.36ZM2873.12 1277.53H2899.07V1295.71H2873.12V1277.53ZM2873.12 1253.69H2899.07V1271.88H2873.12V1253.69ZM2873.12 1231.83H2899.07V1248.04H2873.12V1231.83ZM2873.12 1207.99H2899.07V1226.17H2873.12V1207.99ZM2873.12 1184.16H2899.07V1202.33H2873.12V1184.16ZM2873.12 1160.32H2899.07V1178.51H2873.12V1160.32ZM2873.12 1136.49H2899.07V1154.67H2873.12V1136.49ZM2873.12 1112.65H2899.07V1130.83H2873.12V1112.65ZM2873.12 1092.29H2899.07V1107H2873.12V1092.29ZM2873.12 1068.45H2899.07V1086.63H2873.12V1068.45ZM2873.12 1044.63H2899.07V1062.8H2873.12V1044.63ZM2873.12 1020.79H2899.07V1038.96H2873.12V1020.79ZM2873.12 996.947H2899.07V1015.13H2873.12V996.947ZM2873.12 973.12H2899.07V991.293H2873.12V973.12ZM2873.12 950.12H2899.07V967.467H2873.12V950.12ZM2873.12 926.28H2899.07V944.454H2873.12V926.28ZM2873.12 902.44H2899.07V920.627H2873.12V902.44ZM2873.12 878.613H2899.07V896.787H2873.12V878.613ZM2873.12 854.773H2899.07V872.96H2873.12V854.773ZM2873.12 830.947H2899.07V849.12H2873.12V830.947ZM2873.12 810.573H2899.07V825.293H2873.12V810.573ZM2873.12 786.747H2899.07V804.92H2873.12V786.747ZM2873.12 762.907H2899.07V781.093H2873.12V762.907ZM2873.12 739.08H2899.07V757.254H2873.12V739.08ZM2873.12 715.24H2899.07V733.413H2873.12V715.24ZM2873.12 691.413H2899.07V709.587H2873.12V691.413ZM2909.32 733.413V715.24H2937.53V733.413H2909.32ZM2909.32 757.254V739.08H2937.53V757.254H2909.32ZM2909.32 781.093V762.907H2937.53V781.093H2909.32ZM2909.32 804.92V786.747H2937.53V804.92H2909.32ZM2909.32 825.293V810.573H2937.53V825.293H2909.32ZM2909.32 849.12V830.947H2937.53V849.12H2909.32ZM2909.32 872.96V854.773H2937.53V872.96H2909.32ZM2909.32 896.787V878.613H2937.53V896.787H2909.32ZM2909.32 920.627V902.44H2937.53V920.627H2909.32ZM2909.32 944.454V926.28H2937.53V944.454H2909.32ZM2909.32 967.467V950.12H2937.53V967.467H2909.32ZM2909.32 991.293V973.12H2937.53V991.293H2909.32ZM2909.32 1015.13V996.947H2937.53V1015.13H2909.32ZM2909.32 1038.96V1020.79H2937.53V1038.96H2909.32ZM2909.32 1062.8V1044.63H2937.53V1062.8H2909.32ZM2909.32 1086.63V1068.45H2937.53V1086.63H2909.32ZM2909.32 1107V1092.29H2937.53V1107H2909.32ZM2909.32 1130.83V1112.65H2937.53V1130.83H2909.32ZM2909.32 1154.67V1136.49H2937.53V1154.67H2909.32ZM2909.32 1178.51V1160.32H2937.53V1178.51H2909.32ZM2909.32 1202.33V1184.16H2937.53V1202.33H2909.32ZM2909.32 1226.17V1207.99H2937.53V1226.17H2909.32ZM2909.32 1248.04V1231.83H2937.53V1248.04H2909.32ZM2909.32 1271.88V1253.69H2937.53V1271.88H2909.32ZM2909.32 1295.71V1277.53H2937.53V1295.71H2909.32ZM2909.32 1319.55V1301.36H2937.53V1319.55H2909.32ZM2909.32 1343.37V1325.2H2937.53V1343.37H2909.32ZM2909.32 1367.21V1349.04H2937.53V1367.21H2909.32ZM2909.32 1387.57V1372.87H2937.53V1387.57H2909.32ZM2937.53 1417.07V1435.24H2909.32V1417.07H2937.53ZM2909.32 1411.41V1393.23H2937.53V1411.41H2909.32ZM2937.53 691.413V709.587H2909.32V691.413H2937.53ZM2996.37 691.413V685.747H2983.99V648.413H2973.75V685.747H2947.79V648.413H2937.53V685.747H2909.32V648.413H2899.07V685.747H2873.12V648.413H2862.87V685.747H2849.29V691.413H2862.87V709.587H2849.29V715.24H2862.87V733.413H2849.29V739.08H2862.87V757.254H2849.29V762.907H2862.87V781.093H2849.29V786.747H2862.87V804.92H2849.29V810.573H2862.87V825.293H2849.29V830.947H2862.87V849.12H2849.29V854.773H2862.87V872.96H2849.29V878.613H2862.87V896.787H2849.29V902.44H2862.87V920.627H2849.29V926.28H2862.87V944.454H2849.29V950.12H2862.87V967.467H2849.29V973.12H2862.87V991.293H2849.29V996.947H2862.87V1015.13H2849.29V1020.79H2862.87V1038.96H2849.29V1044.63H2862.87V1062.8H2849.29V1068.45H2862.87V1086.63H2849.29V1092.29H2862.87V1107H2849.29V1112.65H2862.87V1130.83H2849.29V1136.49H2862.87V1154.67H2849.29V1160.32H2862.87V1178.51H2849.29V1184.16H2862.87V1202.33H2849.29V1207.99H2862.87V1226.17H2849.29V1231.83H2862.87V1248.04H2849.29V1253.69H2862.87V1271.88H2849.29V1277.53H2862.87V1295.71H2849.29V1301.36H2862.87V1319.55H2849.29V1325.2H2862.87V1343.37H2849.29V1349.04H2862.87V1367.21H2849.29V1372.87H2862.87V1387.57H2849.29V1393.23H2862.87V1411.41H2849.29V1417.07H2862.87V1435.24H2849.29V1440.91H2996.37V1435.24H2983.99V1417.07H2996.37V1411.41H2983.99V1393.23H2996.37V1387.57H2983.99V1372.87H2996.37V1367.21H2983.99V1349.04H2996.37V1343.37H2983.99V1325.2H2996.37V1319.55H2983.99V1301.36H2996.37V1295.71H2983.99V1277.53H2996.37V1271.88H2983.99V1253.69H2996.37V1248.04H2983.99V1231.83H2996.37V1226.17H2983.99V1207.99H2996.37V1202.33H2983.99V1184.16H2996.37V1178.51H2983.99V1160.32H2996.37V1154.67H2983.99V1136.49H2996.37V1130.83H2983.99V1112.65H2996.37V1107H2983.99V1092.29H2996.37V1086.63H2983.99V1068.45H2996.37V1062.8H2983.99V1044.63H2996.37V1038.96H2983.99V1020.79H2996.37V1015.13H2983.99V996.947H2996.37V991.293H2983.99V973.12H2996.37V967.467H2983.99V950.12H2996.37V944.454H2983.99V926.28H2996.37V920.627H2983.99V902.44H2996.37V896.787H2983.99V878.613H2996.37V872.96H2983.99V854.773H2996.37V849.12H2983.99V830.947H2996.37V825.293H2983.99V810.573H2996.37V804.92H2983.99V786.747H2996.37V781.093H2983.99V762.907H2996.37V757.254H2983.99V739.08H2996.37V733.413H2983.99V715.24H2996.37V709.587H2983.99V691.413H2996.37" fill="#739AF0"/>
<path d="M2379.76 1606.23H2800.27V297.68H2379.76V1606.23Z" fill="#739AF0"/>
<path d="M2379.92 669.2H2684.29V477.497H2379.92V669.2Z" fill="#91B7F8"/>
<path d="M2379.92 1020.24H2684.29V828.532H2379.92V1020.24Z" fill="#91B7F8"/>
<path d="M2379.92 1366.73H2684.29V1175.04H2379.92V1366.73Z" fill="#91B7F8"/>
<path d="M3267.91 1365.51V1188.24H2800.43V296.947H2684.29V1606.23H2800.43H3270.19L3328.56 1365.51H3267.91" fill="#4A75CB"/>
<path d="M3216.49 1565.91H3242.45V1584.08H3216.49V1565.91ZM3216.49 1544.04H3242.45V1560.25H3216.49V1544.04ZM3216.49 1520.2H3242.45V1538.37H3216.49V1520.2ZM3216.49 1496.36H3242.45V1514.55H3216.49V1496.36ZM3216.49 1472.53H3242.45V1490.71H3216.49V1472.53ZM3216.49 1448.69H3242.45V1466.88H3216.49V1448.69ZM3216.49 1424.87H3242.45V1443.04H3216.49V1424.87ZM3216.49 1404.49H3242.45V1419.21H3216.49V1404.49ZM3216.49 1380.67H3242.45V1398.84H3216.49V1380.67ZM3216.49 1356.83H3242.45V1375.01H3216.49V1356.83ZM3216.49 1333H3242.45V1351.17H3216.49V1333ZM3216.49 1309.16H3242.45V1327.33H3216.49V1309.16ZM3216.49 1285.33H3242.45V1303.51H3216.49V1285.33ZM3216.49 1262.32H3242.45V1279.67H3216.49V1262.32ZM3216.49 1238.49H3242.45V1256.67H3216.49V1238.49ZM3216.49 1214.65H3242.45V1232.84H3216.49V1214.65ZM3216.49 1190.83H3242.45V1209H3216.49V1190.83ZM3216.49 1166.99H3242.45V1185.16H3216.49V1166.99ZM3216.49 1143.16H3242.45V1161.33H3216.49V1143.16ZM3216.49 1122.79H3242.45V1137.49H3216.49V1122.79ZM3216.49 1098.96H3242.45V1117.13H3216.49V1098.96ZM3216.49 1075.12H3242.45V1093.29H3216.49V1075.12ZM3216.49 1051.28H3242.45V1069.47H3216.49V1051.28ZM3216.49 1027.45H3242.45V1045.63H3216.49V1027.45ZM3216.49 1003.61H3242.45V1021.8H3216.49V1003.61ZM3252.69 1544.04H3280.92V1560.25H3252.69V1544.04ZM3252.69 1520.2H3280.92V1538.37H3252.69V1520.2ZM3252.69 1496.36H3280.92V1514.55H3252.69V1496.36ZM3252.69 1472.53H3280.92V1490.71H3252.69V1472.53ZM3252.69 1448.69H3280.92V1466.88H3252.69V1448.69ZM3252.69 1424.87H3280.92V1443.04H3252.69V1424.87ZM3252.69 1404.49H3280.92V1419.21H3252.69V1404.49ZM3252.69 1380.67H3280.92V1398.84H3252.69V1380.67ZM3252.69 1356.83H3280.92V1375.01H3252.69V1356.83ZM3252.69 1333H3280.92V1351.17H3252.69V1333ZM3252.69 1309.16H3280.92V1327.33H3252.69V1309.16ZM3252.69 1285.33H3280.92V1303.51H3252.69V1285.33ZM3252.69 1262.32H3280.92V1279.67H3252.69V1262.32ZM3252.69 1238.49H3280.92V1256.67H3252.69V1238.49ZM3252.69 1214.65H3280.92V1232.84H3252.69V1214.65ZM3252.69 1190.83H3280.92V1209H3252.69V1190.83ZM3252.69 1166.99H3280.92V1185.16H3252.69V1166.99ZM3252.69 1143.16H3280.92V1161.33H3252.69V1143.16ZM3252.69 1122.79H3280.92V1137.49H3252.69V1122.79ZM3252.69 1098.96H3280.92V1117.13H3252.69V1098.96ZM3252.69 1075.12H3280.92V1093.29H3252.69V1075.12ZM3252.69 1051.28H3280.92V1069.47H3252.69V1051.28ZM3252.69 1027.45H3280.92V1045.63H3252.69V1027.45ZM3252.69 1003.61H3280.92V1021.8H3252.69V1003.61ZM3291.16 1380.67H3317.12V1398.84H3291.16V1380.67ZM3291.16 1356.83H3317.12V1375.01H3291.16V1356.83ZM3291.16 1333H3317.12V1351.17H3291.16V1333ZM3291.16 1309.16H3317.12V1327.33H3291.16V1309.16ZM3291.16 1285.33H3317.12V1303.51H3291.16V1285.33ZM3291.16 1262.32H3317.12V1279.67H3291.16V1262.32ZM3291.16 1238.49H3317.12V1256.67H3291.16V1238.49ZM3291.16 1214.65H3317.12V1232.84H3291.16V1214.65ZM3291.16 1190.83H3317.12V1209H3291.16V1190.83ZM3291.16 1166.99H3317.12V1185.16H3291.16V1166.99ZM3291.16 1143.16H3317.12V1161.33H3291.16V1143.16ZM3291.16 1122.79H3317.12V1137.49H3291.16V1122.79ZM3291.16 1098.96H3317.12V1117.13H3291.16V1098.96ZM3291.16 1075.12H3317.12V1093.29H3291.16V1075.12ZM3291.16 1051.28H3317.12V1069.47H3291.16V1051.28ZM3291.16 1027.45H3317.12V1045.63H3291.16V1027.45ZM3291.16 1003.61H3317.12V1021.8H3291.16V1003.61ZM3206.24 1606.12L3216.49 1606.15V1589.75H3242.45V1606.19L3252.69 1606.2V1589.75H3274.19L3275.56 1584.08H3252.69V1565.91H3279.96L3292.41 1514.55H3291.16V1496.36H3296.83L3298.2 1490.71H3291.16V1472.53H3302.6L3303.97 1466.88H3291.16V1448.69H3308.39L3309.76 1443.04H3291.16V1424.87H3314.16L3315.53 1419.21H3291.16V1404.49H3317.12V1412.67L3327.37 1370.41V1356.83H3330.67L3332.03 1351.17H3327.37V1333H3336.44L3337.81 1327.33H3327.37V1309.16H3339.75V1303.51H3327.37V1285.33H3339.75V1279.67H3327.37V1262.32H3339.75V1256.67H3327.37V1238.49H3339.75V1232.84H3327.37V1214.65H3339.75V1209H3327.37V1190.83H3339.75V1185.16H3327.37V1166.99H3339.75V1161.33H3327.37V1143.16H3339.75V1137.49H3327.37V1122.79H3339.75V1117.13H3327.37V1098.96H3339.75V1093.29H3327.37V1075.12H3339.75V1069.47H3327.37V1051.28H3339.75V1045.63H3327.37V1027.45H3339.75V1021.8H3327.37V1003.61H3339.75V997.96H3327.37V960.627H3317.12V997.96H3291.16V960.627H3280.92V997.96H3252.69V960.627H3242.45V997.96H3216.49V960.627H3206.24V997.96H3192.67V1003.61H3206.24V1021.8H3192.67V1027.45H3206.24V1045.63H3192.67V1051.28H3206.24V1069.47H3192.67V1075.12H3206.24V1093.29H3192.67V1098.96H3206.24V1117.13H3192.67V1122.79H3206.24V1137.49H3192.67V1143.16H3206.24V1161.33H3192.67V1166.99H3206.24V1185.16H3192.67V1190.83H3206.24V1209H3192.67V1214.65H3206.24V1232.84H3192.67V1238.49H3206.24V1256.67H3192.67V1262.32H3206.24V1279.67H3192.67V1285.33H3206.24V1303.51H3192.67V1309.16H3206.24V1327.33H3192.67V1333H3206.24V1351.17H3192.67V1356.83H3206.24V1375.01H3192.67V1380.67H3206.24V1398.84H3192.67V1404.49H3206.24V1419.21H3192.67V1424.87H3206.24V1443.04H3192.67V1448.69H3206.24V1466.88H3192.67V1472.53H3206.24V1490.71H3192.67V1496.36H3206.24V1514.55H3192.67V1520.2H3206.24V1538.37H3192.67V1544.04H3206.24V1560.25H3192.67V1565.91H3206.24V1584.08H3192.67V1589.75H3206.24V1606.12Z" fill="#739AF0"/>
<path d="M3693.28 2067.73H4.72529C2.49463 2067.73 0.667969 2065.91 0.667969 2063.68C0.667969 2061.44 2.49463 2059.61 4.72529 2059.61H3693.28C3695.51 2059.61 3697.33 2061.44 3697.33 2063.68C3697.33 2065.91 3695.51 2067.73 3693.28 2067.73Z" fill="#283250"/>
<path d="M1960.33 1606.23H2379.76V875.88H1960.33V1606.23Z" fill="#4A75CB"/>
<path d="M2021.36 1041H1988.03V910.28H2021.36V1041Z" fill="white"/>
<path d="M2088.03 1041H2054.69V910.28H2088.03V1041Z" fill="white"/>
<path d="M2154.47 1041H2121.13V910.28H2154.47V1041Z" fill="white"/>
<path d="M2221.13 1041H2187.8V910.28H2221.13V1041Z" fill="white"/>
<path d="M2287.8 1041H2254.47V910.28H2287.8V1041Z" fill="white"/>
<path d="M2354.47 1041H2321.13V910.28H2354.47V1041Z" fill="white"/>
<path d="M2021.36 1214.33H1988.03V1083.61H2021.36V1214.33Z" fill="#EBF2F9"/>
<path d="M2088.03 1214.33H2054.69V1083.61H2088.03V1214.33Z" fill="#EBF2F9"/>
<path d="M2154.47 1214.33H2121.13V1083.61H2154.47V1214.33Z" fill="#EBF2F9"/>
<path d="M2221.13 1214.33H2187.8V1083.61H2221.13V1214.33Z" fill="#EBF2F9"/>
<path d="M2287.8 1214.33H2254.47V1083.61H2287.8V1214.33Z" fill="#EBF2F9"/>
<path d="M2354.47 1214.33H2321.13V1083.61H2354.47V1214.33Z" fill="#EBF2F9"/>
<path d="M2021.36 1387.67H1988.03V1256.95H2021.36V1387.67Z" fill="#EBF2F9"/>
<path d="M2088.03 1387.67H2054.69V1256.95H2088.03V1387.67Z" fill="#EBF2F9"/>
<path d="M2154.47 1387.67H2121.13V1256.95H2154.47V1387.67Z" fill="#EBF2F9"/>
<path d="M2221.13 1387.67H2187.8V1256.95H2221.13V1387.67Z" fill="#EBF2F9"/>
<path d="M2287.8 1387.67H2254.47V1256.95H2287.8V1387.67Z" fill="#EBF2F9"/>
<path d="M2354.47 1387.67H2321.13V1256.95H2354.47V1387.67Z" fill="#EBF2F9"/>
<path d="M2021.36 1562.33H1988.03V1431.61H2021.36V1562.33Z" fill="#EBF2F9"/>
<path d="M2088.03 1562.33H2054.69V1431.61H2088.03V1562.33Z" fill="#EBF2F9"/>
<path d="M2154.47 1562.33H2121.13V1431.61H2154.47V1562.33Z" fill="#EBF2F9"/>
<path d="M2221.13 1562.33H2187.8V1431.61H2221.13V1562.33Z" fill="#EBF2F9"/>
<path d="M2287.8 1562.33H2254.47V1431.61H2287.8V1562.33Z" fill="#EBF2F9"/>
<path d="M2354.47 1562.33H2321.13V1431.61H2354.47V1562.33Z" fill="#EBF2F9"/>
<path d="M2177.8 880.787H2342.25V684.493H2177.8V880.787Z" fill="#4A75CB"/>
</svg>
